<svg class="svg-icon" style="width: 1em; height: 1em;vertical-align: middle;fill: #5358B6;overflow: hidden;" viewBox="0 0 1024 1024" version="1.1" xmlns="http://www.w3.org/2000/svg"><path d="M1024 640q0 94.857143-72.571429 257.714286-1.714286 4-6 13.714285t-7.714285 17.142858-7.428572 12.571428q-6.857143 9.714286-16 9.714286-8.571429 0-13.428571-5.714286t-4.857143-14.285714q0-5.142857 1.428571-15.142857t1.428572-13.428572q2.857143-38.857143 2.857143-70.285714 0-57.714286-10-103.428571t-27.714286-79.142858-45.714286-57.714285-60.285714-39.714286-76-24.285714-88-12.285715-100.285714-3.428571H365.714286v146.285714q0 14.857143-10.857143 25.714286t-25.714286 10.857143-25.714286-10.857143L10.857143 391.428571Q0 380.571429 0 365.714286t10.857143-25.714286L303.428571 47.428571q10.857143-10.857143 25.714286-10.857142t25.714286 10.857142 10.857143 25.714286v146.285714h128q407.428571 0 500 230.285715 30.285714 76.571429 30.285714 190.285714z"  /></svg>